Coordinates
version=1
nRows=9
nColumns=24
inDegrees=yes

Units are S.I. units (second, meters, Newtons, ...)
Angles are in degrees.

endheader
time	pelvis_tilt	pelvis_list	pelvis_rotation	pelvis_tx	pelvis_ty	pelvis_tz	hip_flexion_r	hip_adduction_r	hip_rotation_r	knee_angle_r	ankle_angle_r	subtalar_angle_r	mtp_angle_r	hip_flexion_l	hip_adduction_l	hip_rotation_l	knee_angle_l	ankle_angle_l	subtalar_angle_l	mtp_angle_l	lumbar_extension	lumbar_bending	lumbar_rotation
      3.69000000	      4.01553395	     11.50266434	     -4.62942904	      0.53241937	      0.97768066	     -0.00318218	     -4.15835736	    -15.64121842	     -6.49891240	    -40.10353248	      3.31915152	     -2.07157115	     28.41766921	     14.87639823	     13.23975914	    -14.20822769	     -9.10775184	     -7.24092147	     -3.17694517	     45.19738077	    -16.96103948	    -14.26499818	     12.19836107
      3.69500000	      3.92822321	     11.73809428	     -4.61908217	      0.53771380	      0.97781153	     -0.00384608	     -3.11608030	    -15.99316746	     -5.91422053	    -41.94105494	      2.34543470	     -2.50529090	     29.38729482	     15.03731854	     13.45866526	    -14.16648060	     -9.78341096	     -6.80408346	     -3.14048060	     43.61690905	    -16.86094074	    -14.55150522	     12.00818381
      3.70000000	      3.86643275	     11.95792514	     -4.67590293	      0.54294807	      0.97793639	     -0.00442264	     -2.05020897	    -16.31717404	     -5.24539884	    -43.77483106	      1.53067941	     -2.79867159	     29.40106203	     15.16104421	     13.65290872	    -14.26740481	    -10.40301556	     -6.50086910	     -3.23347483	     43.28418714	    -16.77323863	    -14.83655431	     11.94861771
      3.70500000	      3.75381829	     12.16486147	     -4.69525644	      0.54812116	      0.97795490	     -0.00500550	     -0.92338648	    -16.59919388	     -4.59926472	    -45.58145085	      0.81584345	     -3.09045552	     29.40463752	     15.33527376	     13.83418422	    -14.35358367	    -11.02566935	     -6.13850535	     -3.22847499	     42.65019601	    -16.63837701	    -15.10027749	     11.83873949
      3.71000000	      3.67218194	     12.35654235	     -4.72267790	      0.55327277	      0.97799662	     -0.00558263	      0.16730334	    -16.85178292	     -3.95940495	    -47.32208873	      0.21175625	     -3.32809813	     29.35252871	     15.45462954	     14.00786436	    -14.48181943	    -11.61297194	     -5.71539988	     -3.12787527	     41.76990001	    -16.53301119	    -15.34365823	     11.73999526
      3.71500000	      3.60513555	     12.53452895	     -4.63890828	      0.55845724	      0.97806487	     -0.00626326	      1.16514144	    -17.07777182	     -3.47277039	    -48.96551327	     -0.20268492	     -3.49770946	     29.15494002	     15.52815342	     14.20156373	    -14.48157332	    -12.19596757	     -5.16394901	     -2.86304103	     39.76291702	    -16.47189944	    -15.54732221	     11.43987062
      3.72000000	      3.61137337	     12.68589218	     -4.68259824	      0.56360649	      0.97823027	     -0.00676294	      2.12459305	    -17.25633803	     -2.86953478	    -50.53677742	     -0.53823211	     -3.70417452	     28.94629107	     15.48868430	     14.35218199	    -14.66996641	    -12.67137968	     -4.73190109	     -2.64961606	     38.79152598	    -16.45596552	    -15.75405862	     11.34873089
      3.72500000	      3.66780214	     12.79957060	     -4.76175012	      0.56870689	      0.97846626	     -0.00722116	      3.02526814	    -17.38122590	     -2.25963108	    -52.02189385	     -0.76347032	     -3.88849797	     28.79066511	     15.36961742	     14.47107466	    -14.90292638	    -13.09021126	     -4.32986767	     -2.47712634	     38.10388411	    -16.48902321	    -15.92609481	     11.34933202
      3.73000000	      3.63290198	     12.88712778	     -4.67899871	      0.57377664	      0.97859941	     -0.00786904	      3.94429952	    -17.46561783	     -1.83111515	    -53.42690000	     -0.80051274	     -4.04690885	     28.37828905	     15.32773337	     14.59916308	    -14.91211226	    -13.53022812	     -3.80074878	     -2.20540415	     36.05865240	    -16.46423275	    -16.02451187	     11.07936974
